<?xml version="1.0" standalone="no"?>
<!DOCTYPE svg PUBLIC "-//W3C//DTD SVG 20010904//EN"
 "http://www.w3.org/TR/2001/REC-SVG-20010904/DTD/svg10.dtd">
<svg version="1.0" xmlns="http://www.w3.org/2000/svg"
 width="700.000000pt" height="700.000000pt" viewBox="0 0 700.000000 700.000000"
 preserveAspectRatio="xMidYMid meet">
<metadata>
Created by potrace 1.11, written by Peter Selinger 2001-2013
</metadata>
<g transform="translate(0.000000,700.000000) scale(0.100000,-0.100000)"
fill="#000000" stroke="none">
<path d="M1814 4878 c0 -1081 3 -1528 10 -1529 6 -1 423 -2 926 -3 503 -1 920
-4 925 -8 7 -4 11 -342 10 -1062 0 -697 3 -1056 10 -1057 45 -4 2156 -1 2160
3 10 9 6 581 -3 587 -6 3 -317 6 -691 6 -375 0 -682 2 -682 5 -3 12 -5 676 -2
685 2 7 216 10 621 9 339 0 622 1 627 3 7 2 11 103 10 299 l0 296 -630 2 -630
1 0 284 0 284 670 0 671 0 -1 296 0 296 -1064 0 -1065 0 0 -163 c0 -156 -1
-163 -21 -167 -11 -3 -254 -4 -540 -2 l-520 2 -2 1225 c-1 674 -2 1228 -2
1231 -1 3 -178 6 -394 6 l-393 0 0 -1529z"/>
</g>
</svg>
